# xmcd
#
# Track frame offsets:
#	150
#	15923
#	31599
#	44018
#	60166
#	74125
#	89339
#	104186
#	122403
#	139871
#	154256
#	172603
#
# Disc length: 2554 seconds
#
# Revision: 0
# Processed by: cddbd v1.5.1PL2 Copyright (c) Steve Scherf et al.
# Submitted via: dBpowerAMP V4.0
#
DISCID=9709f80c
DTITLE=Steve Forde and the Flange - Rowdy
DYEAR=2006
DGENRE=Country
TTITLE0=No Wrong
TTITLE1=Feels Alright
TTITLE2=Aussie Philosophy
TTITLE3=The Ride
TTITLE4=Goin' and Blowin'
TTITLE5=Crazy Love
TTITLE6=Captain Good Times
TTITLE7=All I Need
TTITLE8=Everybody Else
TTITLE9=Barebackin'
TTITLE10=QLD Song
TTITLE11=Cowboy Style
EXTD=By Chris Jimmy!
EXTT0=
EXTT1=
EXTT2=
EXTT3=
EXTT4=
EXTT5=
EXTT6=
EXTT7=
EXTT8=
EXTT9=
EXTT10=
EXTT11=
PLAYORDER=
